<?xml version="1.0" encoding="utf-8"?>
<!-- Generator: Adobe Illustrator 26.5.0, SVG Export Plug-In . SVG Version: 6.00 Build 0)  -->
<svg version="1.1" id="Layer_1" xmlns="http://www.w3.org/2000/svg" xmlns:xlink="http://www.w3.org/1999/xlink" x="0px" y="0px"
	 viewBox="0 0 200 200" style="enable-background:new 0 0 200 200;" xml:space="preserve">
<g>
	<path d="M159.6,93.3c0.2-2-1.3-3.7-3.2-3.9l-24.1-2.1l-13.2-26c-0.6-1.1-1.7-1.9-2.9-2l-28.7-2c0,0,0,0-0.1,0c-0.1,0-0.2,0-0.4,0
		c-0.1,0-0.2,0-0.3,0c-0.1,0-0.2,0-0.3,0.1c-0.1,0-0.2,0.1-0.4,0.1c0,0-0.1,0-0.1,0l-23.5,9.2c-0.8,0.3-1.5,0.9-1.9,1.7l-10,19.8
		c-0.9,1.8-0.2,3.9,1.6,4.8c0.5,0.3,1.1,0.4,1.6,0.4c1.3,0,2.6-0.7,3.2-2l9.4-18.6L83,66.4L69.1,176.9c-0.2,2,1.1,3.7,3.1,4
		c0.2,0,0.3,0,0.4,0c1.8,0,3.3-1.3,3.5-3.1L90.4,64.7l23.3,1.6l13.1,26c0.6,1.1,1.6,1.8,2.9,1.9l26.1,2.3
		C157.7,96.8,159.5,95.3,159.6,93.3L159.6,93.3z"/>
	<path d="M110.7,118.4l4.2-51.1c0.1-2-1.3-3.7-3.3-3.8c-2-0.1-3.7,1.3-3.8,3.3l-4.3,52.7c-0.1,1,0.3,2,1,2.8L118,136l-2.2,33.7
		c-0.1,2,1.4,3.7,3.3,3.8c0.1,0,0.2,0,0.2,0c1.9,0,3.4-1.5,3.6-3.3l2.3-35.3c0.1-1-0.3-2-1-2.7L110.7,118.4z"/>
	<g>
		<path d="M103.3,53c-9.7,0-17.6-7.9-17.6-17.6c0-9.7,7.9-17.6,17.6-17.6c9.7,0,17.6,7.9,17.6,17.6C120.9,45.1,113,53,103.3,53z
			 M103.3,23.3c-6.7,0-12.2,5.5-12.2,12.2c0,6.7,5.5,12.1,12.2,12.1c6.7,0,12.1-5.4,12.1-12.1C115.4,28.7,110,23.3,103.3,23.3z"/>
	</g>
	<path d="M48.1,176.4L39,156.3c-0.7-1.8-2.8-2.8-4.6-2.1c-1.8,0.7-2.8,2.8-2.1,4.6l9.1,20.1c0.7,1.8,2.8,2.8,4.6,2.1
		C47.9,180.3,48.8,178.3,48.1,176.4L48.1,176.4z"/>
	<path d="M47.9,179.2l6.4-12.7c0.9-1.7,0.3-3.9-1.4-4.8c-1.7-0.9-3.9-0.3-4.8,1.4l-6.4,12.7c-0.9,1.7-0.3,3.9,1.4,4.8
		C44.8,181.5,47,180.9,47.9,179.2L47.9,179.2z"/>
	<path d="M175.8,176.4l-5.5-13.2c-0.7-1.8-2.8-2.8-4.6-2.1c-1.8,0.7-2.8,2.8-2.1,4.6l5.5,13.2c0.7,1.8,2.8,2.8,4.6,2.1
		C175.6,180.3,176.5,178.3,175.8,176.4L175.8,176.4z"/>
	<path d="M161.3,176.4l-5.5-13.2c-0.7-1.8-2.8-2.8-4.6-2.1c-1.8,0.7-2.8,2.8-2.1,4.6l5.5,13.2c0.7,1.8,2.8,2.8,4.6,2.1
		C161.1,180.3,162,178.3,161.3,176.4L161.3,176.4z"/>
	<path d="M175.7,179.2l9.3-17.6c0.9-1.7,0.3-3.9-1.4-4.8c-1.7-0.9-3.9-0.3-4.8,1.4l-9.3,17.6c-0.9,1.7-0.3,3.9,1.4,4.8
		C172.5,181.5,174.7,180.9,175.7,179.2L175.7,179.2z"/>
	<path d="M34.4,176.6l-5.5-13.2c-0.7-1.8-2.8-2.8-4.6-2.1c-1.8,0.7-2.8,2.8-2.1,4.6l5.5,13.2c0.7,1.8,2.8,2.8,4.6,2.1
		C34.2,180.5,35.1,178.4,34.4,176.6L34.4,176.6z"/>
	<path d="M89,173.9H72.6c-2,0-3.6,1.6-3.6,3.6c0,2,1.6,3.6,3.6,3.6H89c2,0,3.6-1.6,3.6-3.6C92.5,175.5,90.9,173.9,89,173.9z"/>
	<path d="M135.8,166.5h-16.4c-2,0-3.6,1.6-3.6,3.6c0,2,1.6,3.6,3.6,3.6h16.4c2,0,3.6-1.6,3.6-3.6
		C139.4,168.1,137.8,166.5,135.8,166.5z"/>
</g>
</svg>
