<?xml version="1.0" encoding="utf-8"?>
<!-- Generator: Adobe Illustrator 26.5.0, SVG Export Plug-In . SVG Version: 6.00 Build 0)  -->
<svg version="1.1" id="Layer_1" xmlns="http://www.w3.org/2000/svg" xmlns:xlink="http://www.w3.org/1999/xlink" x="0px" y="0px"
	 viewBox="0 0 200 200" style="enable-background:new 0 0 200 200;" xml:space="preserve">
<path d="M74.5,83.4h56.1c20.9,0,37.8,16.9,37.8,37.8c0,20.9-16.9,37.8-37.9,37.8H37c-2.2,0-4-1.8-4-4c0-2.2,1.8-4,4-4h93.6
	c16.5,0,29.9-13.4,29.9-29.9s-13.4-29.9-29.9-29.9H74.5l17.1,17.1c1.6,1.6,1.6,4.1,0,5.6c-1.6,1.6-4.1,1.6-5.6,0L62.1,90.2
	c-1.6-1.6-1.6-4.1,0-5.6L86,60.7c1.6-1.6,4.1-1.6,5.6,0c1.6,1.6,1.6,4.1,0,5.6L74.5,83.4z M63.7,66.3L42.6,87.4l21.1,21.1
	c1.6,1.6,1.6,4.1,0,5.6c-1.6,1.6-4.1,1.6-5.6,0L34.2,90.2c-1.6-1.6-1.6-4.1,0-5.6l23.9-23.9c1.6-1.6,4.1-1.6,5.6,0
	C65.3,62.2,65.3,64.8,63.7,66.3L63.7,66.3z"/>
</svg>
