<?xml version="1.0" encoding="utf-8"?>
<!-- Generator: Adobe Illustrator 26.5.0, SVG Export Plug-In . SVG Version: 6.00 Build 0)  -->
<svg version="1.1" id="Layer_1" xmlns="http://www.w3.org/2000/svg" xmlns:xlink="http://www.w3.org/1999/xlink" x="0px" y="0px"
	 viewBox="0 0 449 452" style="enable-background:new 0 0 449 452;" xml:space="preserve">
<g>
	<path d="M179.2,13.9H12.9v166.3h22.4V52l123.2,123.2l15.7-15.7L51,36.3h128.2L179.2,13.9z"/>
	<path d="M179.2,414.3H51l123.2-123.8l-15.7-15.7L35.3,398V269.8H12.9v166.9h166.3L179.2,414.3z"/>
	<path d="M435.7,269.8h-22.4V398L289.5,274.8l-15.7,15.7L397,414.3H268.8v22.4h166.9L435.7,269.8z"/>
	<path d="M435.7,13.9H268.8v22.4H397L273.8,159.5l15.7,15.7L413.3,52v128.2h22.4L435.7,13.9z"/>
</g>
</svg>
