<?xml version="1.0" encoding="UTF-8"?><svg id="a" xmlns="http://www.w3.org/2000/svg" viewBox="0 0 666.02 370.11"><defs><style>.b{fill:#fff;}</style></defs><path class="b" d="M598.18,.09c-30.99,3.17-55.5,29.88-55.5,61.67,0,13.29,4.34,25.36,11.56,35.46l-90.96,109.07c-9.3-5.64-19.99-8.86-31.6-8.86-16.38,0-31.32,6.44-42.4,16.96l-98.67-79.01c3.26-7.5,5.4-15.62,5.4-24.28,0-33.91-27.76-61.67-61.67-61.67s-61.67,27.76-61.67,61.67c0,13.29,4.34,25.36,11.56,35.46l-90.96,109.07c-9.3-5.64-19.99-8.86-31.6-8.86-33.91,0-61.67,27.76-61.67,61.67s27.76,61.67,61.67,61.67,61.67-27.76,61.67-61.67c0-13.3-4.32-25.74-11.56-35.84l90.96-109.07c9.3,5.64,19.99,9.25,31.6,9.25,16.27,0,30.96-6.58,42.01-16.96l98.67,78.62c-3.22,7.46-5.01,16.07-5.01,24.67,0,33.91,27.76,61.67,61.67,61.67s61.67-27.76,61.67-61.67c0-13.3-4.32-25.74-11.56-35.84l90.96-109.07c9.3,5.64,19.99,9.25,31.6,9.25,33.91,0,61.67-27.76,61.67-61.67S638.25,.09,604.34,.09c-2.12,0-4.1-.21-6.17,0h0Zm6.17,24.67c20.58,0,37,16.42,37,37s-16.42,37-37,37-37-16.42-37-37,16.42-37,37-37ZM234.34,74.09c20.58,0,37,16.42,37,37s-16.42,37-37,37-37-16.42-37-37,16.42-37,37-37h0Zm197.33,148c20.58,0,37,16.42,37,37s-16.42,37-37,37-37-16.42-37-37,16.42-37,37-37ZM61.68,271.43c20.58,0,37,16.42,37,37s-16.42,37-37,37-37-16.42-37-37,16.42-37,37-37Z"/></svg>